# xmcd
#
# Track frame offsets: 
#        150
#        9276
#        19541
#        30631
#        40229
#        48884
#        59210
#        69048
#        78222
#        90331
#        100820
#        113302
#        121738
#        131776
#        143004
#        153010
#
# Disc length: 2173 seconds
#
# Revision: 0
# Processed by: cddbd v1.4PL0 Copyright (c) Steve Scherf et al.
# Submitted via: ExactAudioCopy v0.95a3
#
DISCID=b0087b10
DTITLE=Johnny Cash - Blue Train
DYEAR=2001
DGENRE=Country
TTITLE0=Blue Train
TTITLE1=Get Rhythm
TTITLE2=Cry Cry Cry
TTITLE3=Down The Street To 301
TTITLE4=I Forgot To Remember To Forget
TTITLE5=Straight "A"s In Love
TTITLE6=Hey Porter
TTITLE7=Luther Played The Boogie
TTITLE8=Thanks A Lot
TTITLE9=The Way Of A Woman In Love
TTITLE10=Give My Love To Rose
TTITLE11=Guess Things Happen That Way
TTITLE12=Ballad Of A Teenage Queen
TTITLE13=Belshazzar
TTITLE14=I Could Never Be Ashamed Of You
TTITLE15=Goodbye, Little Darlin', Goodbye
EXTD=
EXTT0=
EXTT1=
EXTT2=
EXTT3=
EXTT4=
EXTT5=
EXTT6=
EXTT7=
EXTT8=
EXTT9=
EXTT10=
EXTT11=
EXTT12=
EXTT13=
EXTT14=
EXTT15=
PLAYORDER=
